<?xml version="1.0" encoding="utf-8"?>
<!-- Generator: Adobe Illustrator 27.9.0, SVG Export Plug-In . SVG Version: 6.00 Build 0)  -->
<svg version="1.1" id="Layer_1" xmlns="http://www.w3.org/2000/svg" xmlns:xlink="http://www.w3.org/1999/xlink" x="0px" y="0px"
	 viewBox="0 0 600 600" style="enable-background:new 0 0 600 600;" xml:space="preserve">
<style type="text/css">
	.st0{fill:#27374D;}
	.st1{fill:none;stroke:#27374D;stroke-width:27;stroke-miterlimit:10;}
</style>
<g>
	<path class="st0" d="M173.46,379.59c5.98,1.91,12,2.12,18.06,2.09c8.32-0.04,16.64,0.01,24.95-0.01c5.7-0.01,11.39-0.07,17.09-0.07
		c3.53,0,7.07,0.12,10.6,0.09c3.81-0.03,7.63-0.17,11.44-0.26c2.61-0.06,5.23-0.12,7.84-0.17c1.76-0.04,3.52-0.12,5.29-0.11
		c5.92,0.02,11.84,0.09,17.77,0.11c5.53,0.03,11.05,0.02,16.58,0.04c6.49,0.03,12.99,0.07,19.48,0.12c1.71,0.01,3.42,0.15,5.12,0.14
		c7-0.05,14-0.17,21-0.2c10.14-0.04,20.29-0.02,30.43-0.03c7.58-0.01,15.15-0.03,22.73-0.04c6.21-0.01,12.42-0.12,18.63-0.01
		c3.79,0.07,7.31-0.95,10.83-2.02c3.65-1.11,7.1-2.7,10.36-4.69c0.43-0.26,0.87-0.49,1.39-0.78c-8.02,16.41-6.86,32.32,2.62,47.92
		c-1.56-0.75-2.99-1.56-4.5-2.16c-6.53-2.6-13.23-4.3-20.31-4.25c-9.74,0.07-19.48-0.07-29.23-0.05
		c-7.97,0.01-15.94,0.12-23.92,0.16c-7.57,0.04-15.15,0.07-22.73,0.08c-7.23,0-14.46-0.06-21.69-0.04
		c-3.24,0.01-6.48,0.24-9.72,0.22c-3.93-0.03-7.85-0.28-11.78-0.31c-4.16-0.03-8.31,0.09-12.47,0.12c-4.1,0.03-8.21,0.02-12.31,0.02
		c-7.58,0-15.16,0-22.73,0c-7.81,0-15.61,0-23.42,0.01c-7.69,0.01-15.38,0.03-23.07,0.06c-6.55,0.03-13.1,0.14-19.65,0.14
		c-3.81,0-7.46,0.7-11.01,1.99c-4.17,1.53-8.07,3.56-11.94,6.16c8.2-16.88,6.89-33.11-3.21-49.04c1.22,0.61,2.37,1.2,3.55,1.75
		c1.29,0.61,2.58,1.23,3.92,1.74C170.72,378.78,172.04,379.14,173.46,379.59z M362.94,406.98c2.51,0.02,5.02,0.02,7.52,0.06
		c1.65,0.02,3.3,0.15,4.95,0.12c3.47-0.05,6.93-0.18,10.4-0.25c0.97-0.02,1.94,0.13,2.9,0.13c5.69-0.04,11.39-0.12,17.08-0.15
		c3.59-0.02,7.18-0.05,10.77,0.03c4.7,0.1,8.35-4.4,8.73-8.02c0.58-5.55-3.91-10.36-9.08-10.23c-2.56,0.07-5.13,0.07-7.69,0.08
		c-7.46,0.03-14.92,0.05-22.38,0.06c-8.89,0.01-17.78,0.02-26.66,0.02c-6.26,0-12.53-0.05-18.79-0.03
		c-7.92,0.02-15.83,0.12-23.75,0.14c-8.6,0.01-17.2-0.06-25.8-0.04c-6.43,0.01-12.86,0.11-19.28,0.14
		c-7.52,0.03-15.04,0.02-22.56,0.04c-7.81,0.02-15.61,0.05-23.42,0.06c-7.75,0.01-15.5,0.02-23.25,0.02c-3.31,0-6.61-0.02-9.92-0.02
		c-2.05,0-3.94,0.51-5.58,1.77c-3.49,2.66-4.2,6.66-3.18,10.24c0.78,2.73,4.03,6.31,8.58,6.27c2.45-0.02,4.89-0.05,7.34-0.06
		c7.92-0.02,15.84-0.04,23.76-0.06c7.24-0.02,14.47-0.05,21.71-0.06c7.75-0.02,15.5-0.02,23.24-0.02c5.41,0,10.83,0.04,16.24,0.02
		c3.07-0.01,6.14-0.16,9.21-0.15c2.67,0,5.34,0.19,8.01,0.18c5.24-0.01,10.47-0.1,15.71-0.14c6.44-0.04,12.88-0.06,19.31-0.08
		C345.6,407,354.15,407,362.94,406.98z"/>
	<path class="st0" d="M513.23,405.63c2.51-0.78,4.88-1.56,7.28-2.24c2.07-0.59,3.09,0.31,2.74,2.46c-1.03,6.4-3.44,12.23-7.25,17.44
		c-4.56,6.23-10.35,10.92-17.56,13.78c-4.38,1.74-8.97,2.4-13.68,2.55c-7.53,0.25-14.61-1.36-21.22-5.07
		c-4.07-2.29-7.64-5.23-10.89-8.59c-4.61-4.76-8.34-10.05-10.41-16.39c-3.47-10.62-3.32-21.13,0.86-31.45
		c1.46-3.61,3.68-6.76,6.36-9.59c3.36-3.55,6.91-6.89,11.21-9.3c8.01-4.5,16.62-5.85,25.72-4.54c9.13,1.32,16.92,5.34,23.51,11.8
		c0.04,0.04,0.08,0.08,0.13,0.12c1.58,1.58,1.33,2.84-0.74,3.52c-2.05,0.67-4.11,1.3-6.17,1.93c-6.19,1.89-12.37,3.8-18.57,5.66
		c-5.37,1.62-8.14,5.56-9.39,10.71c-1.75,7.23,1.46,16.73,8.72,21.2c3.39,2.09,6.95,2.81,10.8,1.63
		C500.82,409.38,506.97,407.53,513.23,405.63z"/>
	<path class="st0" d="M115.67,440.96c-5.03-1.44-9.38-3.92-13.36-7.08c-1.39-1.1-2.73-2.28-4.01-3.51c-1.57-1.51-1.23-2.86,0.86-3.5
		c6.24-1.92,12.49-3.8,18.73-5.71c2.06-0.63,4.11-1.3,6.17-1.93c3.71-1.14,6.14-3.63,7.86-7.04c3.68-7.32,1.16-17.26-4.53-22.52
		c-2.24-2.07-4.72-3.58-7.71-4.25c-2.81-0.64-5.41,0.04-8.03,0.86c-5.79,1.82-11.6,3.6-17.39,5.41c-1.84,0.57-3.67,1.18-5.51,1.78
		c-0.32,0.1-0.65,0.22-0.98,0.3c-1.92,0.47-2.93-0.36-2.63-2.29c0.29-1.85,0.62-3.72,1.18-5.5c1.36-4.29,3.23-8.35,5.91-12
		c4.24-5.77,9.46-10.33,16.02-13.32c6.31-2.88,12.97-3.55,19.84-3.13c10.22,0.63,18.74,4.96,26.05,12c3.02,2.91,5.84,6,8.08,9.57
		c3.01,4.77,4.85,10,5.71,15.52c1.17,7.5,0.69,14.9-1.82,22.07c-2.07,5.93-5.68,10.8-10.3,14.97c-2.49,2.25-5.05,4.39-7.98,6.05
		c-7.06,4.01-14.68,5.7-22.79,4.92C121.94,442.32,118.87,441.54,115.67,440.96z"/>
	<path class="st0" d="M362.81,406.99c-8.67,0.01-17.21,0.02-25.76,0.04c-6.44,0.01-12.88,0.04-19.31,0.08
		c-5.24,0.03-10.47,0.13-15.71,0.14c-2.67,0-5.34-0.18-8.01-0.18c-3.07,0-6.14,0.14-9.21,0.15c-5.41,0.02-10.83-0.02-16.24-0.02
		c-7.75,0-15.5,0.01-23.24,0.02c-7.24,0.01-14.47,0.04-21.71,0.06c-7.92,0.02-15.84,0.03-23.76,0.06c-2.45,0.01-4.89,0.04-7.34,0.06
		c-4.55,0.04-7.8-3.53-8.58-6.27c-1.02-3.58-0.31-7.58,3.18-10.24c1.64-1.25,3.53-1.77,5.58-1.77c3.31,0,6.61,0.02,9.92,0.02
		c7.75,0,15.5-0.01,23.25-0.02c7.81-0.01,15.61-0.04,23.42-0.06c7.52-0.02,15.04-0.01,22.56-0.04c6.43-0.03,12.86-0.13,19.28-0.14
		c8.6-0.01,17.2,0.06,25.8,0.04c7.92-0.01,15.83-0.11,23.75-0.14c6.26-0.02,12.53,0.03,18.79,0.03c8.89,0,17.78-0.01,26.66-0.02
		c7.46-0.01,14.92-0.03,22.38-0.06c2.56-0.01,5.13-0.01,7.69-0.08c5.17-0.13,9.66,4.68,9.08,10.23c-0.38,3.63-4.03,8.12-8.73,8.02
		c-3.59-0.08-7.18-0.05-10.77-0.03c-5.69,0.03-11.39,0.11-17.08,0.15c-0.97,0.01-1.94-0.14-2.9-0.13c-3.47,0.06-6.93,0.2-10.4,0.25
		c-1.65,0.02-3.3-0.1-4.95-0.12C367.95,407,365.44,407,362.81,406.99z M196.19,405.34c0.51-0.04,1.02-0.12,1.53-0.12
		c7.75-0.02,15.5-0.02,23.25-0.03c7.63-0.01,15.27-0.03,22.9-0.05c7.58-0.02,15.16-0.04,22.74-0.05c7.52-0.02,15.04-0.04,22.56-0.05
		c8.09-0.01,16.17-0.03,24.26-0.03c8.66-0.01,17.32-0.03,25.98-0.02c10.48,0.01,20.96,0.06,31.44,0.09c0.91,0,1.82,0.06,2.73,0.04
		c2.79-0.08,5.57-0.25,8.35-0.26c9-0.03,18-0.01,27.01,0c2.45,0,4.9,0.06,7.35,0.02c3.84-0.06,7.03-3.36,7-7.15
		c-0.04-3.9-2.99-6.89-6.99-7c-1.71-0.05-3.41,0.07-5.12,0.07c-7.81,0.03-15.61,0.05-23.42,0.06c-7.41,0.01-14.82,0.02-22.22,0.03
		c-8.43,0.01-16.86,0.02-25.29,0.04c-6.84,0.02-13.67,0.05-20.51,0.08c-7.86,0.03-15.73,0.07-23.59,0.09
		c-7.5,0.01-15.01-0.01-22.51,0c-7.92,0.01-15.84,0.03-23.76,0.05c-7.18,0.01-14.36,0.03-21.54,0.04c-9.4,0.01-18.8,0.02-28.2,0.02
		c-2.56,0-5.13-0.01-7.69-0.03c-3.44-0.02-7.09,3.09-6.93,7.35c0.14,3.8,3,6.64,7.01,6.78
		C193.67,405.34,194.81,405.33,196.19,405.34z"/>
	<path class="st0" d="M196.07,405.35c-1.26-0.01-2.4,0-3.54-0.04c-4.01-0.14-6.87-2.98-7.01-6.78c-0.16-4.26,3.49-7.37,6.93-7.35
		c2.56,0.02,5.13,0.03,7.69,0.03c9.4,0,18.8-0.01,28.2-0.02c7.18-0.01,14.36-0.02,21.54-0.04c7.92-0.02,15.84-0.04,23.76-0.05
		c7.5-0.01,15.01,0.02,22.51,0c7.86-0.01,15.73-0.06,23.59-0.09c6.84-0.03,13.67-0.06,20.51-0.08c8.43-0.02,16.86-0.03,25.29-0.04
		c7.41-0.01,14.82-0.01,22.22-0.03c7.81-0.01,15.61-0.03,23.42-0.06c1.71-0.01,3.41-0.12,5.12-0.07c4,0.11,6.95,3.1,6.99,7
		c0.04,3.79-3.16,7.08-7,7.15c-2.45,0.04-4.9-0.02-7.35-0.02c-9-0.01-18.01-0.03-27.01,0c-2.79,0.01-5.57,0.19-8.35,0.26
		c-0.91,0.02-1.82-0.04-2.73-0.04c-10.48-0.03-20.96-0.08-31.44-0.09c-8.66-0.01-17.32,0.01-25.98,0.02
		c-8.09,0.01-16.17,0.02-24.26,0.03c-7.52,0.01-15.04,0.03-22.56,0.05c-7.58,0.02-15.16,0.04-22.74,0.05
		c-7.63,0.02-15.27,0.04-22.9,0.05c-7.75,0.01-15.5,0.02-23.25,0.03C197.21,405.23,196.7,405.3,196.07,405.35z"/>
</g>
<ellipse class="st1" cx="299.62" cy="300.24" rx="277.08" ry="273.76"/>
<g>
	<path class="st0" d="M241.69,283.41c-7.6,5.05-15.72,8.13-24.41,10.14c-13.17,3.05-26.44,4.02-39.75,2.15
		c-9.46-1.33-18.74-3.43-27.5-8.02c-9.14-4.79-16.55-11.39-21.87-19.74c-6.36-9.96-10.85-20.98-12.95-32.85
		c-1.23-6.93-3.37-13.69-4.68-20.6c-0.8-4.22-1.27-8.44-2.81-12.52c-1.14-3.01-2.92-5.64-4.28-8.51c-0.94-2-3.11-2.28-4.89-2.92
		c-2.52-0.9-3.61-2.36-4.02-5.11c-1.01-6.8-1.88-13.6-2.37-20.46c-0.2-2.71,0.91-4.01,3.4-4.49c4.03-0.77,8.05-1.59,12.1-2.3
		c14.85-2.6,29.9-3.7,44.87-5.3c17.35-1.85,34.77-2.73,52.3-1.73c12.62,0.73,25.15,2.09,37.68,3.49
		c11.06,1.24,22.07,2.94,33.02,5.09c9.97,1.97,20.12,2.04,30.31,1.87c13.36-0.23,26.13-4.13,39.26-5.47
		c16.01-1.63,31.9-4.13,48.03-4.92c13.91-0.68,27.77-0.53,41.59,0.46c10.8,0.77,21.61,1.99,32.36,3.65
		c5.53,0.86,11.26,0.63,16.83,1.63c7.15,1.29,14.39,2.03,21.43,3.89c1.89,0.5,2.88,1.64,2.56,3.56c-1.29,7.79-1.61,15.71-3.27,23.44
		c-0.29,1.34-1.06,2.01-2.46,2.36c-5.7,1.42-8.03,5.89-9.59,10.97c-1.8,5.86-3.48,11.74-4.5,17.8c-1.33,7.88-2.84,15.7-5.22,23.36
		c-2.44,7.83-5.09,15.54-9.28,22.64c-7.62,12.93-18.65,22.12-32.75,26.67c-13.21,4.26-26.97,5.84-41.03,4.54
		c-7.92-0.74-15.67-2.18-23.25-4.18c-7.09-1.87-13.69-5.24-19.82-9.56c-3.38-2.38-6.56-4.91-9.33-7.85
		c-3.04-3.22-6.18-6.37-8.54-10.28c-2.33-3.85-4.7-7.65-6.74-11.68c-4.45-8.79-7.72-17.98-10.47-27.43
		c-1.36-4.7-3.89-9.06-5.24-13.76c-1.33-4.6-4.14-8.19-6.76-11.93c-3.47-4.93-13.62-5.21-18.47-0.74c-4.06,3.74-6.26,8.7-8.17,13.61
		c-3.03,7.79-5.1,15.95-8.06,23.77c-2.68,7.07-5.54,14.09-9.23,20.76c-2.85,5.14-6.13,9.92-9.91,14.36
		C251.79,276.02,247.3,280.21,241.69,283.41z M383.09,163.51c-1.53,0.19-3.06,0.37-4.58,0.58c-12.77,1.74-25.73,2.72-37.36,9.1
		c-5.92,3.25-10.05,8.01-10.38,14.94c-0.76,16.08,1.14,31.86,6.16,47.24c2.33,7.12,5.4,13.94,9.67,20
		c3.85,5.46,8.29,10.55,13.87,14.6c6.51,4.73,13.28,8.58,21.09,10.76c9.26,2.59,18.63,4.01,28.22,3.87
		c7.3-0.11,14.51-1.08,21.64-2.66c6.91-1.54,13.25-4.55,18.67-8.91c5.46-4.4,9.7-9.89,13.13-16.26c3.67-6.81,5.85-13.96,7.63-21.28
		c3.09-12.73,4.31-25.73,3.34-38.77c-0.84-11.23-5.13-20.71-15.88-26.4c-4.73-2.5-9.79-3.74-14.8-4.86
		c-11.46-2.57-23.19-2.96-34.91-2.79C400.29,162.79,391.98,163.18,383.09,163.51z M205.21,163.27c-13.46-1.28-26.89-0.6-40.3,0.69
		c-5.54,0.54-10.83,2.22-16.19,3.62c-8.48,2.21-14.99,6.98-19.13,14.57c-2.56,4.69-3.58,10.06-3.64,15.41
		c-0.09,7.68,0,15.33,0.9,23.03c1.08,9.2,2.44,18.19,5.63,26.94c3.69,10.13,9.02,19,17.58,25.75c8.09,6.38,17.71,9.07,27.57,10.49
		c15.02,2.17,30.01,0.84,44.35-4.05c11.31-3.85,20.99-10.83,28.24-20.39c6.49-8.57,11.46-18.05,14.05-28.68
		c1.6-6.56,3.85-13.03,4.32-19.75c0.54-7.87,0.14-15.81,0.26-23.72c0.1-6.43-4.14-10.24-8.72-13.23c-8.49-5.55-18.5-6.95-28.27-8.54
		C223.26,164.02,214.57,162.93,205.21,163.27z M112.34,178.02c3.11-0.43,6.19-0.95,8.95-2.81c-5.37-3.35-16.27-3.34-19.69-0.07
		C103.53,177.13,106.38,177.95,112.34,178.02z M496.21,173.57c-5.74-1.1-11.41-1.49-17.13,1.12c4.28,4.34,14.87,4.47,19.29,0.56
		C498.23,174.24,497.3,174.14,496.21,173.57z"/>
</g>
</svg>
